<svg width="16" height="16" viewBox="0 0 16 16" fill="none" xmlns="http://www.w3.org/2000/svg">
<path d="M9.3619 2.41211C9.3619 3.00792 8.87602 3.4909 8.27669 3.4909C7.67733 3.4909 7.19148 3.00789 7.19148 2.41211C7.19148 1.81629 7.67736 1.33331 8.27669 1.33331C8.87605 1.33331 9.3619 1.81632 9.3619 2.41211Z" fill="#64748B"/>
<path d="M6.63078 5.70716C6.63078 5.70716 5.74389 10.285 5.55294 10.5948C5.38963 10.8597 4.11527 12.9382 4.11527 12.9382C3.84322 13.3817 4.10102 13.6987 4.38925 13.8641C4.63463 14.0049 5.16208 13.9701 5.33648 13.6744C5.33648 13.6744 6.75035 11.4871 6.90462 11.0154C7.01141 10.6888 7.25959 9.33405 7.25959 9.33405C7.25959 9.33405 8.63341 10.7426 8.78387 10.9946C8.97352 11.3123 9.32675 13.527 9.32675 13.527C9.41123 13.921 9.78927 14.0496 10.1829 13.9836C10.4937 13.9316 10.8188 13.7225 10.7466 13.3402C10.7466 13.3402 10.4325 10.7724 10.1829 10.3511C9.88495 9.84826 8.28274 8.13003 8.28274 8.13003L8.7421 6.09583C8.7421 6.09583 9.03694 6.68999 9.24324 6.94688C9.47784 7.23902 10.9554 8.08853 10.9554 8.08853C11.091 8.1789 11.3978 8.12911 11.5192 7.90172C11.6166 7.7192 11.6121 7.42357 11.3939 7.27899C11.3939 7.27899 10.1762 6.51904 9.89052 6.28264C9.57276 6.02023 8.92993 4.26966 8.92993 4.26966C8.73054 3.99689 8.45779 3.69595 7.9903 3.68846C7.5191 3.68089 7.28325 3.93894 7.07154 4.08283C7.07154 4.08283 5.26651 5.39358 5.0879 5.66038C4.90821 5.92878 4.58676 7.94365 4.58676 7.94365C4.53637 8.17323 4.62658 8.35784 4.89996 8.42108C5.23447 8.49844 5.47424 8.29137 5.50549 8.13048C5.50549 8.13048 5.7116 6.53901 5.86046 6.30386C6.03377 6.03007 6.63063 5.70752 6.63063 5.70752L6.63078 5.70716Z" fill="#64748B"/>
</svg>
