<svg width="14" height="14" viewBox="0 0 14 14" fill="none" xmlns="http://www.w3.org/2000/svg">
<path d="M8.19159 2.11063C8.19159 2.63197 7.76645 3.05458 7.24204 3.05458C6.7176 3.05458 6.29248 2.63195 6.29248 2.11063C6.29248 1.58929 6.71762 1.16669 7.24204 1.16669C7.76648 1.16669 8.19159 1.58932 8.19159 2.11063Z" fill="#64748B"/>
<path d="M5.80193 4.9938C5.80193 4.9938 5.0259 8.99939 4.85882 9.27045C4.71593 9.50223 3.60086 11.321 3.60086 11.321C3.36282 11.709 3.5884 11.9864 3.8406 12.1311C4.0553 12.2544 4.51682 12.2239 4.66942 11.9651C4.66942 11.9651 5.90656 10.0513 6.04154 9.63849C6.13499 9.35273 6.35214 8.16733 6.35214 8.16733C6.35214 8.16733 7.55424 9.3998 7.68589 9.62033C7.85183 9.89833 8.16091 11.8362 8.16091 11.8362C8.23483 12.181 8.56562 12.2934 8.91001 12.2357C9.18198 12.1902 9.46642 12.0073 9.40332 11.6727C9.40332 11.6727 9.12845 9.42591 8.91001 9.05721C8.64933 8.61727 7.24739 7.11382 7.24739 7.11382L7.64934 5.33389C7.64934 5.33389 7.90732 5.85378 8.08783 6.07856C8.29311 6.33418 9.586 7.07751 9.586 7.07751C9.70459 7.15658 9.97308 7.11301 10.0793 6.91404C10.1646 6.75434 10.1606 6.49566 9.96969 6.36916C9.96969 6.36916 8.90421 5.7042 8.6542 5.49735C8.37616 5.26774 7.81369 3.73599 7.81369 3.73599C7.63922 3.49731 7.40057 3.234 6.99151 3.22744C6.57921 3.22082 6.37284 3.44661 6.1876 3.57251C6.1876 3.57251 4.6082 4.71942 4.45191 4.95287C4.29468 5.18772 4.01341 6.95073 4.01341 6.95073C3.96933 7.15161 4.04825 7.31315 4.28746 7.36848C4.58016 7.43617 4.78996 7.25499 4.8173 7.11421C4.8173 7.11421 4.99765 5.72167 5.1279 5.51591C5.27955 5.27635 5.8018 4.99411 5.8018 4.99411L5.80193 4.9938Z" fill="#64748B"/>
</svg>
