<?xml version="1.0" encoding="utf-8"?>
<!-- Generator: Adobe Illustrator 24.0.2, SVG Export Plug-In . SVG Version: 6.00 Build 0)  -->
<svg version="1.1" id="Layer_1" xmlns="http://www.w3.org/2000/svg" xmlns:xlink="http://www.w3.org/1999/xlink" x="0px" y="0px"
	 viewBox="0 0 998.5 395.7" style="enable-background:new 0 0 998.5 395.7;" xml:space="preserve">
<style type="text/css">
	.st0{fill:#1A1A18;}
	.st1{fill:#FF3802;}
</style>
<g id="g20" transform="translate(188.6943,305.6113)">
	<path id="path22" class="st0" d="M-70.4-20.1h30.9c-4.6,17.3-13.2,30.6-26,39.6c-12.8,9.5-28.9,14.2-48.3,14.2
		c-23.5,0-41.9-7.6-55.1-22.9c-13.2-14.9-19.8-36.1-19.8-63.8c0-26.4,6.4-47.1,19.2-61.9c13.2-15.3,31.6-22.9,55.1-22.9
		c24.8,0,44,7.4,57.6,22.3c7.4,9.1,12.8,19.6,16.1,31.6H-84c-2.1-4.1-4.1-7.2-6.2-9.3c-5.4-5.8-13-8.7-22.9-8.7
		c-9.1,0-16.5,2.9-22.3,8.7c-7.4,8.3-11.2,21.9-11.2,40.8c0,19,3.7,32.5,11.2,40.3c5.4,6.6,13.4,9.9,24.2,9.9c7,0,13-1.5,17.9-4.3
		c1.2-0.4,2.4-1.1,3.4-2.2c1-1,2.1-2.2,3.4-3.4c0.8-1.2,2.5-2.9,5-5C-79.1-19-75.3-20.1-70.4-20.1"/>
</g>
<g id="g24" transform="translate(219.791,391.0947)">
	<path id="path26" class="st0" d="M-60-219.5h22.3c5.8,0,10.7,2.1,14.9,6.2c4.1,4.1,6.2,9.1,6.2,14.9v143.7H-60V-219.5z M-60-267.8
		h22.3c5.8,0,10.7,2.1,14.9,6.2c4.1,4.2,6.2,9.1,6.2,14.9v13H-60V-267.8z"/>
</g>
<g id="g28" transform="translate(318.0425,267.5225)">
	<path id="path30" class="st0" d="M-27.3,68.8c-13.6,0.8-28.4,0.6-44.3-0.6s-23.8-11.4-23.8-30.3v-182.1h22.3
		c5.3,0,10.1,2.1,14.2,6.2c4.1,4.1,6.2,9.1,6.2,14.9v27.9h25.4v8.7c0,6.2-2.1,11.2-6.2,15.2s-9.1,5.9-14.9,5.9h-4.3v91.5
		c0,7.1,4.1,10.5,12.4,10.5h13L-27.3,68.8L-27.3,68.8z"/>
</g>
<g id="g32" transform="translate(338.4863,223.8613)">
	<path id="path34" class="st0" d="M-20.5,170.7v-34.1h11.8c8.3,0,14.8-1.9,19.5-5.9c4.8-4,5.7-10.2,2.8-18.9L-44-52.3H3.7L37.1,64.1
		L66.3-37.4c2.5-9.9,9.1-14.9,19.8-14.9h29.7L52.6,135.4c-5,13.6-11.2,23.3-18.6,29.1c-7.4,5-19.6,7.4-36.5,7.4h-4.4h-4.3
		c-1.2-0.4-2.8-0.7-4.7-0.9C-17.7,170.8-19.2,170.7-20.5,170.7"/>
</g>
<g id="g36" transform="translate(535.542,330.2456)">
	<path id="path38" class="st1" d="M45.2-77.6c0-14.8-3.1-26.4-9.3-34.7c-6.2-8.6-14.7-13-25.4-13c-11.5,0-20.4,4.2-26.5,12.4
		c-6.2,8.7-9.3,20.5-9.3,35.3c0,17.4,2.9,30,8.7,37.8c6.2,8.7,14.9,13,26,13c11.5,0,20.4-4.3,26.6-13C42.2-48.4,45.2-61,45.2-77.6
		 M-25.4-186.5v49.6c4.5-7.8,11.1-14.3,19.8-19.2c7.4-4.1,16.5-6.2,27.3-6.2c19.4,0,35.3,8,47.7,24.1S88-101.2,88-75.6
		s-6.2,46.4-18.6,62.5c-6.2,7.8-14.5,13.5-25.1,17C33.8,7.4,23.3,9.2,13,9.2C-6.8,9.2-25.2,4-42.2-6.3C-59-16.6-67.5-36.5-67.5-65.8
		v-141.8h21.1c5.8,0,10.7,2.1,14.9,6.2C-27.4-197.3-25.4-192.3-25.4-186.5"/>
</g>
<g id="g40" transform="translate(611.5928,344.7021)">
	<path id="path42" class="st1" d="M70.6-111.3h69c-0.9-12.2-4-21.2-9.5-27c-5.8-6.3-14.2-9.5-25-9.5c-9.9,0-18,3.1-24.3,9.5
		C74.4-132,71-123,70.6-111.3 M151.7-58.5h33.8c-5,18.9-14.4,33.4-28.4,43.3C143.2-4.9,125.6,0.3,104.4,0.3
		c-25.7,0-45.8-8.3-60.2-25C29.8-40.9,22.6-64.2,22.6-94.4c0-28.9,7-51.4,21-67.6c14.4-16.7,34.5-25,60.2-25c27,0,48,8.1,62.9,24.3
		c14.4,16.7,21.6,39.9,21.6,69.7v4.7v2.7c0,2.3-0.3,3.8-0.7,4.8h-117c0.4,14,3.8,24.3,10.1,31.1c5.9,7.2,14.7,10.8,26.4,10.8
		c7.6,0,14.2-1.6,19.6-4.8c1.4-0.4,2.6-1.2,3.7-2.4c1.1-1.1,2.4-2.3,3.7-3.7c0.4-1.4,2.1-3.2,5.1-5.4
		C142.1-57.4,146.3-58.5,151.7-58.5"/>
</g>
<g id="g44" transform="translate(745.832,344.5132)">
	<path id="path46" class="st1" d="M115.3-110.8h69c-0.9-12.2-4.1-21.2-9.5-27.1c-5.9-6.3-14.2-9.4-25-9.4c-9.9,0-18,3.2-24.4,9.4
		C119.2-131.6,115.8-122.6,115.3-110.8 M196.5-58.1h33.8c-5,18.9-14.4,33.4-28.4,43.3c-14,10.3-31.6,15.5-52.8,15.5
		c-25.7,0-45.8-8.3-60.2-25C74.5-40.5,67.3-63.8,67.3-94c0-28.8,7-51.4,20.9-67.6c14.4-16.7,34.5-25,60.2-25c27,0,48,8.1,62.9,24.4
		c14.4,16.7,21.6,39.9,21.6,69.6v4.7v2.7c0,2.2-0.2,3.8-0.6,4.7h-117c0.5,14,3.8,24.3,10.1,31.1c5.8,7.2,14.6,10.8,26.4,10.8
		c7.7,0,14.2-1.6,19.6-4.7c1.3-0.5,2.6-1.2,3.7-2.4c1.1-1.2,2.3-2.4,3.7-3.7c0.4-1.4,2.1-3.1,5.1-5.4
		C186.9-57,191.1-58.1,196.5-58.1"/>
</g>
<g id="g48" transform="translate(647.2256,486.1167)">
	<path id="path50" class="st0" d="M82.5-441.3c5.4-2.9,24.3-10.1,76.1-10.1s70.7,7.2,76.1,10.1l13.8,50.7c-24.2-5.8-53-8.8-86-8.8
		H157c-34.2,0-63.7,3.2-88.4,9.4L82.5-441.3z M-1.7-373.5c4.9,0.3,9.6-0.3,13.6-1.6l8.3,5c-24.8,15.9-32.3,34.1-34.4,45.9h10.5
		c0,0,23.5,0.3,43.5-14.5c7.7-5,18.2-9.9,32.6-14c0.1,0.1,4.7-1.5,10-2.6c7.4-1.6,16.1-2.9,16.1-2.9c16.1-2.5,35.4-4,58.4-4h5.5
		c22.8,0,42,1.6,58.3,4.1c0,0,26,5.8,26.1,5.6c10,2.8,18.3,6.1,25,9.6c2.9,1.6,4.4,2.8,6.4,4.2c23.6,16.9,48.6,14.5,48.6,14.5
		l6.8-0.1c-2.1-11.7-9.5-29.6-33.8-45.5l10-6c3.9,1.2,8.2,2,12.6,2.2c15.8,0.8,28.8-7.1,28.9-17.7c-0.1-10.6-13.1-18.5-28.9-17.7
		s-30.3,8.7-30.3,17.7c0,0.9,0.2,1.8,0.5,2.7l-6.6,4c0,0-19.7-72.4-20.1-73.2c-5.7-12.9-28.9-28.3-107.4-28.3S56.8-470.7,51.1-457.8
		c-0.4,0.8-19.5,71.3-19.5,71.3l-4.6-2.8c0.1-0.7,0.2-1.4,0.2-2c-0.1-10.6-13.1-18.5-28.9-17.7S-32-400.3-32-391.3
		C-32-382.2-17.5-374.3-1.7-373.5"/>
</g>
</svg>
